<svg width="48" height="71" viewBox="0 0 48 71" fill="none" xmlns="http://www.w3.org/2000/svg">
<path d="M35.6958 9.74322C38.5832 9.74322 41.4715 9.74137 44.3589 9.74507C46.5301 9.74784 47.998 11.2282 47.998 13.4252C47.9998 31.3268 47.9998 49.2275 47.998 67.1291C47.998 69.3085 46.5502 70.7944 44.4027 70.7954C30.8151 70.8009 17.2275 70.8028 3.63985 70.7972C1.44762 70.7972 0.0153303 69.3298 0.0153303 67.1161C0.0125935 49.245 0.0217163 31.3749 -0.000178566 13.5048C-0.00291543 11.5602 1.23232 10.1408 2.75493 9.81349C3.11711 9.73582 3.4802 9.74414 3.84329 9.74414C6.76169 9.74137 9.6801 9.74322 12.5985 9.74414C12.6058 10.0363 12.6049 10.3295 12.6213 10.6207C12.6843 11.7562 12.9917 12.0669 14.102 12.0669C20.7854 12.0706 27.4697 12.0688 34.1531 12.0688C34.2745 12.0688 34.3967 12.0725 34.518 12.0641C35.2543 12.0161 35.548 11.7248 35.6073 10.9832C35.6402 10.5699 35.6666 10.1565 35.6967 9.74322H35.6958ZM24.2384 66.4198C25.2018 65.3787 26.1542 64.3634 27.0893 63.3324C27.3082 63.091 27.4369 63.0365 27.6868 63.3157C28.5343 64.2626 29.4266 65.1678 30.2686 66.1184C30.514 66.3958 30.6253 66.3653 30.8479 66.1184C31.7082 65.1632 32.5949 64.2311 33.4561 63.2769C33.6605 63.0503 33.7663 63.054 33.9734 63.2843C34.8337 64.2395 35.7259 65.1651 36.5889 66.1184C36.807 66.3588 36.9329 66.369 37.1545 66.1221C38.0148 65.1669 38.9007 64.2348 39.7655 63.2834C39.9562 63.0735 40.0702 63.0245 40.2855 63.2704C40.9104 63.9843 41.5609 64.6759 42.2114 65.3666C42.5069 65.681 42.7724 66.0305 43.1747 66.3292C43.1747 66.1101 43.1747 65.9584 43.1747 65.8068C43.1747 55.4385 43.1747 45.0702 43.1747 34.7019C43.1747 29.864 43.1492 25.0271 43.1875 20.1892C43.2039 18.1253 41.5919 16.6736 39.8604 16.6782C29.4485 16.7013 19.0374 16.6893 8.6255 16.6912C8.36823 16.6912 8.11188 16.6884 7.85644 16.7541C6.23531 17.1665 5.29656 18.4286 5.29656 20.2216C5.29565 35.412 5.29565 50.6025 5.29565 65.7929C5.29565 65.9538 5.29565 66.1147 5.29565 66.2756C5.34035 66.2987 5.38414 66.3218 5.42884 66.3449C5.52646 66.2118 5.61313 66.0685 5.72351 65.9483C6.54183 65.0578 7.36928 64.1766 8.18213 63.2815C8.36823 63.0762 8.48409 63.0568 8.68206 63.2741C9.54691 64.2256 10.4364 65.154 11.2967 66.1091C11.5129 66.3496 11.6242 66.4208 11.876 66.1369C12.7198 65.1873 13.6038 64.2746 14.4532 63.3296C14.6813 63.0762 14.8163 63.0531 15.0544 63.3185C15.9138 64.2755 16.8005 65.2057 17.6626 66.1591C17.8633 66.381 17.9755 66.3847 18.1799 66.1572C19.0292 65.2122 19.9059 64.2931 20.7571 63.349C20.9906 63.0901 21.1293 63.0494 21.3875 63.3379C22.3162 64.3745 23.2741 65.3842 24.2375 66.4226L24.2384 66.4198Z" fill="white"/>
<path d="M35.6959 9.74321C35.6667 10.1565 35.6393 10.5708 35.6065 10.9832C35.5472 11.7248 35.2534 12.016 34.5172 12.0641C34.3958 12.0724 34.2745 12.0687 34.1523 12.0687C27.4689 12.0687 20.7845 12.0706 14.1011 12.0669C12.9899 12.0669 12.6834 11.7562 12.6205 10.6207C12.604 10.3294 12.605 10.0363 12.5977 9.74413C12.6588 9.10241 12.5703 8.45607 12.6971 7.81343C12.9781 6.38851 14.1978 5.33624 15.6283 5.32607C16.3271 5.32052 17.0259 5.30758 17.7238 5.33069C18.0942 5.34271 18.2456 5.27614 18.3168 4.83692C18.7291 2.29316 20.8101 0.31899 23.3554 0.0480618C25.9727 -0.231188 28.0053 0.756358 29.3801 3.05508C29.7386 3.65427 29.9174 4.3265 30.0087 5.01353C30.0452 5.28723 30.1601 5.33069 30.39 5.32792C31.0888 5.31867 31.7867 5.32514 32.4855 5.32422C34.3347 5.32422 35.6411 6.62523 35.6731 8.49861C35.6804 8.91378 35.6877 9.32896 35.694 9.74413L35.6959 9.74321ZM24.1162 5.32329C25.0878 5.32329 26.0585 5.32514 27.03 5.32329C27.54 5.32237 27.5482 5.30758 27.3886 4.79901C27.093 3.85862 26.4599 3.22892 25.5895 2.83594C23.7349 1.99911 21.5718 2.90251 20.9031 4.78144C20.727 5.27799 20.759 5.32329 21.2927 5.32422C22.2332 5.32514 23.1747 5.32422 24.1153 5.32422L24.1162 5.32329Z" fill="#FF9500"/>
<path d="M40.2121 50.6914C40.2121 49.7115 39.977 48.7464 39.527 47.8791C39.0771 47.0119 38.4258 46.2686 37.6293 45.7133C36.8328 45.158 35.915 44.8074 34.955 44.6916C33.995 44.5759 33.0217 44.6986 32.1189 45.049C31.2161 45.3995 30.411 45.9672 29.7729 46.7033C29.1348 47.4394 28.6829 48.3218 28.4562 49.2743C28.2295 50.2268 28.2347 51.2209 28.4714 52.1709C28.7081 53.1209 29.1693 53.9984 29.8151 54.7275L31.6855 53.0256C31.312 52.6039 31.0453 52.0965 30.9084 51.5471C30.7715 50.9976 30.7685 50.4227 30.8996 49.8718C31.0308 49.3209 31.2921 48.8106 31.6611 48.3849C32.0302 47.9592 32.4958 47.6309 33.0179 47.4282C33.5401 47.2255 34.103 47.1545 34.6582 47.2215C35.2134 47.2884 35.7442 47.4912 36.2048 47.8123C36.6655 48.1335 37.0421 48.5634 37.3024 49.0649C37.5626 49.5665 37.6986 50.1247 37.6986 50.6914H40.2121Z" fill="#FF9500"/>
<path d="M34.251 56.7334C35.3639 56.7334 36.4545 56.4176 37.3995 55.8219C38.3444 55.2261 39.106 54.3742 39.598 53.3624L37.3434 52.2361C37.0589 52.8213 36.6184 53.314 36.0719 53.6586C35.5254 54.0031 34.8946 54.1857 34.251 54.1857L34.251 56.7334Z" fill="white"/>
<path d="M23.1938 23.5618C27.6337 23.5618 32.0746 23.5655 36.5145 23.5535C36.8643 23.5526 36.9942 23.6354 36.9777 24.0303C36.9474 24.7491 36.9518 25.4716 36.9777 26.1904C36.9899 26.5438 36.8756 26.6248 36.5596 26.6239C33.4313 26.6128 30.3022 26.6184 27.174 26.6184C21.3929 26.6184 15.6118 26.6128 9.83063 26.6257C9.42542 26.6266 9.27217 26.5355 9.29815 26.0772C9.33624 25.3897 9.32932 24.6976 9.30074 24.0091C9.28516 23.6308 9.41503 23.5554 9.74318 23.5563C14.2264 23.5664 18.7105 23.5637 23.1938 23.5637V23.5618Z" fill="white"/>
<path d="M19.6286 34.7176C16.3481 34.7176 13.0675 34.7092 9.7878 34.7277C9.37545 34.7296 9.27145 34.6084 9.29061 34.209C9.32254 33.5183 9.32071 32.8229 9.29061 32.1313C9.27327 31.7475 9.3864 31.6403 9.76865 31.6421C13.3831 31.6569 16.9976 31.6504 20.6121 31.6504C23.6044 31.6504 26.5958 31.6588 29.5872 31.6421C29.9758 31.6403 30.0753 31.7577 30.0607 32.135C30.0324 32.8423 30.0351 33.5516 30.0616 34.2589C30.0752 34.6205 29.9722 34.7287 29.6063 34.7277C26.2801 34.7139 22.9548 34.7194 19.6286 34.7194V34.7176Z" fill="white"/>
<path d="M16.7603 39.598C19.0702 39.598 21.381 39.6054 23.691 39.5906C24.0531 39.5878 24.2037 39.6627 24.1845 40.0658C24.1517 40.788 24.1626 41.5139 24.1799 42.237C24.1872 42.5467 24.107 42.6669 23.7749 42.6669C19.0784 42.6577 14.3829 42.6586 9.68644 42.6669C9.39542 42.6669 9.28412 42.5911 9.29233 42.2786C9.3124 41.5555 9.3197 40.8296 9.28868 40.1074C9.27226 39.7117 9.37079 39.5841 9.78496 39.5878C12.1104 39.61 14.4358 39.598 16.7612 39.598H16.7603Z" fill="white"/>
<path fill-rule="evenodd" clip-rule="evenodd" d="M34.7561 21.7102L40.6162 25.1921L34.7561 28.6739L34.7561 25.7951L34.7561 24.589L34.7561 21.7102Z" fill="white"/>
</svg>
