<svg width="18" height="20" viewBox="0 0 18 20" fill="none" xmlns="http://www.w3.org/2000/svg">
<path fill-rule="evenodd" clip-rule="evenodd" d="M12.0709 3.19287C12.8 2.34788 13.2914 1.17098 13.1569 0C12.1063 0.04 10.8352 0.671147 10.0819 1.51514C9.40537 2.26413 8.81484 3.4609 8.97359 4.60889C10.1456 4.69588 11.3418 4.03885 12.0709 3.19287ZM14.699 10.625C14.7283 13.652 17.4697 14.6589 17.5 14.6719C17.4778 14.7429 17.0622 16.1066 16.056 17.5166C15.1854 18.7346 14.2824 19.9476 12.8596 19.9736C11.4621 19.9986 11.0122 19.1797 9.41346 19.1797C7.81577 19.1797 7.31624 19.9475 5.9936 19.9985C4.62039 20.0475 3.5738 18.6808 2.6971 17.4668C0.903235 14.9838 -0.466935 10.4501 1.37344 7.39014C2.28756 5.87116 3.92064 4.90779 5.69428 4.88379C7.04221 4.85879 8.31531 5.75293 9.13943 5.75293C9.96356 5.75293 11.5107 4.67794 13.1367 4.83594C13.8172 4.86294 15.7284 5.09885 16.955 6.81982C16.8559 6.87882 14.6747 8.09504 14.699 10.625Z" fill="black"/>
</svg>
