<svg width="29" height="41" viewBox="0 0 29 41" fill="none" xmlns="http://www.w3.org/2000/svg">
<path d="M21.365 5.70477C23.0272 5.70477 24.6899 5.70373 26.3521 5.70582C27.6021 5.70739 28.4471 6.54378 28.4471 7.78506C28.4481 17.8991 28.4481 28.0127 28.4471 38.1268C28.4471 39.3581 27.6136 40.1977 26.3773 40.1982C18.5553 40.2013 10.7333 40.2024 2.91127 40.1992C1.64926 40.1992 0.824727 39.3702 0.824727 38.1195C0.823151 28.0226 0.828403 17.9263 0.815799 7.82999C0.814223 6.73133 1.52532 5.92941 2.40184 5.74448C2.61034 5.70059 2.81936 5.7053 3.02838 5.7053C4.70843 5.70373 6.38848 5.70477 8.06853 5.7053C8.07273 5.87038 8.07221 6.03599 8.08166 6.20055C8.1179 6.84209 8.29488 7.01762 8.93403 7.01762C12.7815 7.01971 16.6295 7.01866 20.4769 7.01866C20.5468 7.01866 20.6172 7.02075 20.687 7.01605C21.1108 6.98889 21.2799 6.82432 21.3141 6.40534C21.333 6.17182 21.3482 5.9383 21.3656 5.70477H21.365ZM14.7693 37.7261C15.3239 37.1378 15.8722 36.5642 16.4105 35.9817C16.5365 35.8454 16.6106 35.8146 16.7545 35.9723C17.2424 36.5073 17.756 37.0187 18.2407 37.5558C18.382 37.7125 18.4461 37.6953 18.5742 37.5558C19.0695 37.0161 19.5799 36.4895 20.0757 35.9504C20.1934 35.8224 20.2543 35.8245 20.3735 35.9546C20.8687 36.4942 21.3824 37.0172 21.8792 37.5558C22.0047 37.6916 22.0772 37.6974 22.2048 37.5579C22.7 37.0182 23.21 36.4916 23.7079 35.954C23.8176 35.8354 23.8833 35.8078 24.0072 35.9467C24.367 36.35 24.7414 36.7408 25.1159 37.1311C25.286 37.3087 25.4388 37.5062 25.6705 37.6749C25.6705 37.5511 25.6705 37.4654 25.6705 37.3797C25.6705 31.5218 25.6705 25.6639 25.6705 19.806C25.6705 17.0727 25.6557 14.3399 25.6778 11.6066C25.6873 10.4405 24.7593 9.62032 23.7625 9.62294C17.7686 9.636 11.7752 9.62921 5.78137 9.63025C5.63327 9.63025 5.4857 9.62868 5.33865 9.66578C4.4054 9.89878 3.86499 10.6119 3.86499 11.6249C3.86447 20.2072 3.86447 28.7895 3.86447 37.3719C3.86447 37.4628 3.86447 37.5537 3.86447 37.6446C3.8902 37.6577 3.91541 37.6707 3.94114 37.6838C3.99734 37.6085 4.04723 37.5276 4.11078 37.4597C4.58186 36.9566 5.0582 36.4587 5.52614 35.953C5.63327 35.837 5.69997 35.826 5.81393 35.9488C6.3118 36.4864 6.82385 37.0109 7.3191 37.5506C7.44357 37.6864 7.50764 37.7266 7.65259 37.5662C8.13838 37.0297 8.64728 36.5141 9.13622 35.9802C9.26751 35.837 9.34524 35.824 9.48231 35.9739C9.97703 36.5146 10.4875 37.0402 10.9838 37.5788C11.0993 37.7042 11.1639 37.7062 11.2816 37.5777C11.7705 37.0438 12.2752 36.5245 12.7652 35.9911C12.8997 35.8449 12.9795 35.8219 13.1281 35.9849C13.6627 36.5705 14.2142 37.141 14.7688 37.7277L14.7693 37.7261Z" fill="#047844"/>
<path d="M21.3651 5.70475C21.3483 5.93828 21.3326 6.17232 21.3137 6.40532C21.2795 6.8243 21.1104 6.98887 20.6866 7.01603C20.6168 7.02073 20.5469 7.01865 20.4765 7.01865C16.6291 7.01865 12.7811 7.01969 8.93361 7.0176C8.29394 7.0176 8.11748 6.84207 8.08124 6.20053C8.07179 6.03597 8.07232 5.87036 8.06812 5.70528C8.1033 5.34272 8.05236 4.97754 8.12536 4.61446C8.28711 3.80941 8.98928 3.21489 9.81276 3.20915C10.215 3.20601 10.6173 3.1987 11.0191 3.21176C11.2323 3.21855 11.3195 3.18093 11.3605 2.93278C11.5978 1.4956 12.7958 0.380231 14.261 0.227161C15.7678 0.0693901 16.9379 0.627337 17.7293 1.92608C17.9357 2.26461 18.0387 2.64441 18.0912 3.03257C18.1122 3.1872 18.1783 3.21176 18.3107 3.21019C18.713 3.20497 19.1147 3.20862 19.517 3.2081C20.5816 3.2081 21.3336 3.94315 21.352 5.00157C21.3562 5.23614 21.3604 5.47071 21.3641 5.70528L21.3651 5.70475ZM14.699 3.20758C15.2583 3.20758 15.8171 3.20862 16.3765 3.20758C16.67 3.20706 16.6748 3.1987 16.5829 2.91136C16.4127 2.38006 16.0482 2.02429 15.5472 1.80226C14.4795 1.32947 13.2343 1.83988 12.8494 2.90144C12.748 3.18198 12.7664 3.20758 13.0736 3.2081C13.6151 3.20862 14.157 3.2081 14.6985 3.2081L14.699 3.20758Z" fill="#FF9500"/>
<path d="M23.965 28.8398C23.965 28.2862 23.8296 27.7409 23.5706 27.2509C23.3116 26.7609 22.9366 26.341 22.4781 26.0272C22.0196 25.7135 21.4912 25.5154 20.9386 25.45C20.386 25.3847 19.8257 25.454 19.3059 25.652C18.7862 25.85 18.3227 26.1707 17.9554 26.5866C17.5881 27.0025 17.3279 27.501 17.1974 28.0391C17.0669 28.5773 17.0699 29.139 17.2062 29.6757C17.3424 30.2125 17.6079 30.7082 17.9797 31.1201L19.0564 30.1586C18.8414 29.9204 18.6879 29.6337 18.6091 29.3232C18.5303 29.0128 18.5285 28.688 18.604 28.3767C18.6795 28.0655 18.83 27.7772 19.0424 27.5367C19.2549 27.2962 19.5229 27.1106 19.8235 26.9961C20.1241 26.8816 20.4481 26.8415 20.7677 26.8793C21.0873 26.9172 21.3929 27.0317 21.6581 27.2132C21.9233 27.3946 22.1401 27.6375 22.2899 27.9209C22.4397 28.2042 22.518 28.5196 22.518 28.8398H23.965Z" fill="#FF9500"/>
<path d="M20.5333 32.2534C21.174 32.2534 21.8018 32.075 22.3458 31.7384C22.8898 31.4018 23.3282 30.9205 23.6114 30.3489L22.3135 29.7126C22.1497 30.0431 21.8962 30.3215 21.5816 30.5162C21.267 30.7109 20.9038 30.814 20.5333 30.814L20.5333 32.2534Z" fill="#047844"/>
<path d="M14.168 13.5121C16.7239 13.5121 19.2804 13.5141 21.8364 13.5074C22.0377 13.5069 22.1125 13.5537 22.103 13.7767C22.0856 14.1829 22.0881 14.5911 22.103 14.9972C22.11 15.1968 22.0442 15.2426 21.8623 15.2421C20.0614 15.2358 18.2601 15.239 16.4593 15.239C13.1312 15.239 9.80318 15.2358 6.47514 15.2431C6.24187 15.2436 6.15365 15.1922 6.1686 14.9332C6.19053 14.5448 6.18655 14.1537 6.1701 13.7648C6.16113 13.5511 6.23589 13.5084 6.4248 13.5089C9.00568 13.5147 11.5871 13.5131 14.168 13.5131V13.5121Z" fill="#047844"/>
<path d="M12.1155 19.8149C10.227 19.8149 8.33845 19.8102 6.45043 19.8206C6.21305 19.8216 6.15318 19.7532 6.1642 19.5275C6.18259 19.1373 6.18154 18.7444 6.1642 18.3536C6.15423 18.1368 6.21935 18.0762 6.4394 18.0773C8.52016 18.0856 10.6009 18.082 12.6817 18.082C14.4043 18.082 16.1263 18.0867 17.8484 18.0773C18.0721 18.0762 18.1294 18.1426 18.121 18.3557C18.1047 18.7554 18.1063 19.1561 18.1215 19.5557C18.1294 19.76 18.07 19.8211 17.8594 19.8206C15.9446 19.8128 14.0303 19.8159 12.1155 19.8159V19.8149Z" fill="#047844"/>
<path d="M10.4644 22.5722C11.7942 22.5722 13.1245 22.5764 14.4542 22.568C14.6627 22.5665 14.7494 22.6088 14.7383 22.8365C14.7194 23.2446 14.7257 23.6547 14.7357 24.0632C14.7399 24.2382 14.6937 24.3061 14.5025 24.3061C11.7989 24.3009 9.09581 24.3014 6.39218 24.3061C6.22465 24.3061 6.16058 24.2633 6.16531 24.0867C6.17686 23.6782 6.18106 23.2681 6.16321 22.8601C6.15375 22.6365 6.21047 22.5644 6.4489 22.5665C7.78759 22.579 9.12627 22.5722 10.465 22.5722H10.4644Z" fill="#047844"/>
<path fill-rule="evenodd" clip-rule="evenodd" d="M20.8241 12.4659L24.1976 14.4331L20.8241 16.4003L20.8241 14.7738L20.8241 14.0924L20.8241 12.4659Z" fill="#047844"/>
</svg>
