<svg width="20" height="20" viewBox="0 0 20 20" fill="none" xmlns="http://www.w3.org/2000/svg">
<path d="M7.50837 17.7083C7.35003 17.7083 7.1917 17.65 7.0667 17.525L2.8917 13.35C2.65003 13.1083 2.65003 12.7083 2.8917 12.4667C3.13337 12.225 3.53337 12.225 3.77503 12.4667L7.95003 16.6417C8.1917 16.8833 8.1917 17.2833 7.95003 17.525C7.82503 17.6417 7.6667 17.7083 7.50837 17.7083Z" fill="white"/>
<path d="M7.5083 17.7084C7.16663 17.7084 6.8833 17.4251 6.8833 17.0834V2.91675C6.8833 2.57508 7.16663 2.29175 7.5083 2.29175C7.84997 2.29175 8.1333 2.57508 8.1333 2.91675V17.0834C8.1333 17.4251 7.84997 17.7084 7.5083 17.7084Z" fill="white"/>
<path d="M16.675 12.2826C16.5167 12.2826 16.3583 12.341 16.2333 12.466L12.0583 16.641C11.8167 16.8826 11.8167 17.2826 12.0583 17.5243C12.3 17.766 12.7 17.766 12.9417 17.5243L17.1167 13.3493C17.3583 13.1077 17.3583 12.7077 17.1167 12.466C16.9917 12.341 16.8333 12.2826 16.675 12.2826Z" fill="white"/>
<path d="M12.4917 2.29158C12.15 2.29158 11.8667 2.57492 11.8667 2.91658V17.0833C11.8667 17.4249 12.15 17.7083 12.4917 17.7083C12.8334 17.7083 13.1167 17.4249 13.1167 17.0833V2.91658C13.1167 2.57492 12.8417 2.29158 12.4917 2.29158Z" fill="white"/>
</svg>
