<svg width="20" height="20" viewBox="0 0 20 20" fill="none" xmlns="http://www.w3.org/2000/svg">
<path d="M12.4916 2.29168C12.65 2.29168 12.8083 2.35001 12.9333 2.47502L17.1083 6.65002C17.35 6.89168 17.35 7.29168 17.1083 7.53335C16.8666 7.77502 16.4666 7.77502 16.225 7.53335L12.05 3.35835C11.8083 3.11668 11.8083 2.71668 12.05 2.47502C12.175 2.35835 12.3333 2.29168 12.4916 2.29168Z" fill="white"/>
<path d="M12.4917 2.29158C12.8334 2.29158 13.1167 2.57492 13.1167 2.91658V17.0833C13.1167 17.4249 12.8334 17.7083 12.4917 17.7083C12.15 17.7083 11.8667 17.4249 11.8667 17.0833V2.91658C11.8667 2.57492 12.15 2.29158 12.4917 2.29158Z" fill="white"/>
<path d="M3.32501 7.71735C3.48334 7.71735 3.64167 7.65902 3.76667 7.53402L7.94167 3.35902C8.18334 3.11735 8.18334 2.71735 7.94167 2.47568C7.70001 2.23402 7.30001 2.23402 7.05834 2.47568L2.88334 6.65068C2.64167 6.89235 2.64167 7.29235 2.88334 7.53402C3.00834 7.65902 3.16667 7.71735 3.32501 7.71735Z" fill="white"/>
<path d="M7.5083 17.7084C7.84997 17.7084 8.1333 17.4251 8.1333 17.0834V2.91675C8.1333 2.57508 7.84997 2.29175 7.5083 2.29175C7.16663 2.29175 6.8833 2.57508 6.8833 2.91675V17.0834C6.8833 17.4251 7.1583 17.7084 7.5083 17.7084Z" fill="white"/>
</svg>
