<svg width="21" height="20" viewBox="0 0 21 20" fill="none" xmlns="http://www.w3.org/2000/svg">
<path d="M10.5004 3.86624C11.933 3.8442 13.3184 4.3779 14.3659 5.35534L17.1874 2.59633C15.3772 0.900101 12.981 -0.0300145 10.5004 0.00073902C8.64705 0.000310762 6.83008 0.515469 5.25273 1.4886C3.67537 2.46174 2.39982 3.85448 1.56873 5.51108L4.80167 8.02111C5.19698 6.81911 5.95963 5.77154 6.98206 5.0261C8.0045 4.28066 9.23514 3.87497 10.5004 3.86624Z" fill="#E43E2B"/>
<path d="M20.098 10.2209C20.1098 9.53363 20.0388 8.84743 19.8865 8.17712H10.5001V11.8879H16.0105C15.9059 12.5384 15.6709 13.1611 15.3195 13.7185C14.9681 14.276 14.5076 14.7565 13.9657 15.1314L17.1208 17.5751C18.1041 16.6257 18.8773 15.4807 19.3907 14.214C19.904 12.9473 20.1459 11.587 20.1009 10.2209H20.098Z" fill="#3B7DED"/>
<path d="M4.81313 11.9755C4.59453 11.3391 4.48184 10.671 4.47954 9.99807C4.48353 9.3262 4.59218 8.65904 4.80159 8.02062L1.56864 5.51059C0.867441 6.90273 0.502197 8.4398 0.502197 9.99855C0.502197 11.5573 0.867441 13.0944 1.56864 14.4865L4.81313 11.9755Z" fill="#F0B501"/>
<path d="M10.5004 19.9962C12.9357 20.0651 15.3049 19.1985 17.121 17.5746L13.966 15.1309C12.943 15.8168 11.7315 16.1663 10.5004 16.1307C9.23616 16.1232 8.00641 15.7178 6.98557 14.972C5.96474 14.2262 5.20465 13.1779 4.81315 11.9759L1.5802 14.4869C2.40906 16.1427 3.68252 17.5351 5.25797 18.5082C6.83342 19.4812 8.64865 19.9965 10.5004 19.9962Z" fill="#2BA24C"/>
</svg>
