<svg width="253" height="239" viewBox="0 0 253 239" fill="none" xmlns="http://www.w3.org/2000/svg">
<path d="M100.598 31.4677H90.7026V33.6237V46.3145V48.4772H111.691V33.6237H101.299L100.598 31.4677Z" fill="#92E3A9"/>
<path d="M100.598 63.8341H90.7026V65.9901V78.6809V80.8436H111.691V65.9901H101.299L100.598 63.8341Z" fill="#92E3A9"/>
<path d="M100.598 96.2005H90.7026V98.3564V111.047V113.21H111.691V98.3564H101.299L100.598 96.2005Z" fill="#92E3A9"/>
<path d="M100.598 128.567H90.7026V130.723V143.414V145.576H111.691V130.723H101.299L100.598 128.567Z" fill="#92E3A9"/>
<path d="M100.598 160.933H90.7026V163.096V175.78V177.943H111.691V163.096H101.299L100.598 160.933Z" fill="#92E3A9"/>
<path d="M164.039 31.4677H154.143V33.6237V46.3145V48.4772H175.138V33.6237H164.746L164.039 31.4677Z" fill="#92E3A9"/>
<path d="M205.206 33.6237L204.499 31.4677H194.603V33.6237V46.3145V48.4772H215.591V33.6237H205.206Z" fill="#92E3A9"/>
<path d="M164.039 63.8341H154.143V65.9901V78.6809V80.8436H175.138V65.9901H164.746L164.039 63.8341Z" fill="#92E3A9"/>
<path d="M204.499 96.2005H194.603V98.3564V111.047V113.21H215.591V98.3564H205.206L204.499 96.2005Z" fill="#92E3A9"/>
<path d="M204.499 63.8341H194.603V65.9901V78.6809V80.8436H215.591V65.9901H205.206L204.499 63.8341Z" fill="#92E3A9"/>
<path d="M164.039 96.2005H154.143V98.3564V111.047V113.21H175.138V98.3564H164.746L164.039 96.2005Z" fill="#92E3A9"/>
<path d="M164.039 128.567H154.143V130.723V143.414V145.576H175.138V130.723H164.746L164.039 128.567Z" fill="#92E3A9"/>
<path d="M204.499 128.567H194.603V130.723V143.414V145.576H215.591V130.723H205.206L204.499 128.567Z" fill="#92E3A9"/>
<path d="M164.039 160.933H154.143V163.096V175.78V177.943H175.138V163.096H164.746L164.039 160.933Z" fill="#92E3A9"/>
<path d="M204.499 160.933H194.603V163.096V175.78V177.943H215.591V163.096H205.206L204.499 160.933Z" fill="#92E3A9"/>
<g opacity="0.5">
<path d="M100.598 31.4677H90.7026V33.6237V46.3145V48.4772H111.691V33.6237H101.299L100.598 31.4677Z" fill="white"/>
<path d="M100.598 63.8341H90.7026V65.9901V78.6809V80.8436H111.691V65.9901H101.299L100.598 63.8341Z" fill="white"/>
<path d="M100.598 96.2005H90.7026V98.3564V111.047V113.21H111.691V98.3564H101.299L100.598 96.2005Z" fill="white"/>
<path d="M100.598 128.567H90.7026V130.723V143.414V145.576H111.691V130.723H101.299L100.598 128.567Z" fill="white"/>
<path d="M100.598 160.933H90.7026V163.096V175.78V177.943H111.691V163.096H101.299L100.598 160.933Z" fill="white"/>
<path d="M164.039 31.4677H154.143V33.6237V46.3145V48.4772H175.138V33.6237H164.746L164.039 31.4677Z" fill="white"/>
<path d="M205.206 33.6237L204.499 31.4677H194.603V33.6237V46.3145V48.4772H215.591V33.6237H205.206Z" fill="white"/>
<path d="M164.039 63.8341H154.143V65.9901V78.6809V80.8436H175.138V65.9901H164.746L164.039 63.8341Z" fill="white"/>
<path d="M204.499 96.2005H194.603V98.3564V111.047V113.21H215.591V98.3564H205.206L204.499 96.2005Z" fill="white"/>
<path d="M204.499 63.8341H194.603V65.9901V78.6809V80.8436H215.591V65.9901H205.206L204.499 63.8341Z" fill="white"/>
<path d="M164.039 96.2005H154.143V98.3564V111.047V113.21H175.138V98.3564H164.746L164.039 96.2005Z" fill="white"/>
<path d="M164.039 128.567H154.143V130.723V143.414V145.576H175.138V130.723H164.746L164.039 128.567Z" fill="white"/>
<path d="M204.499 128.567H194.603V130.723V143.414V145.576H215.591V130.723H205.206L204.499 128.567Z" fill="white"/>
<path d="M164.039 160.933H154.143V163.096V175.78V177.943H175.138V163.096H164.746L164.039 160.933Z" fill="white"/>
<path d="M204.499 160.933H194.603V163.096V175.78V177.943H215.591V163.096H205.206L204.499 160.933Z" fill="white"/>
</g>
<path d="M102.081 238.037C121.049 238.037 136.426 234.84 136.426 230.896C136.426 226.952 121.049 223.755 102.081 223.755C83.1124 223.755 67.7354 226.952 67.7354 230.896C67.7354 234.84 83.1124 238.037 102.081 238.037Z" fill="#92E3A9"/>
<path opacity="0.5" d="M102.081 238.037C121.049 238.037 136.426 234.84 136.426 230.896C136.426 226.952 121.049 223.755 102.081 223.755C83.1124 223.755 67.7354 226.952 67.7354 230.896C67.7354 234.84 83.1124 238.037 102.081 238.037Z" fill="white"/>
<path d="M127.531 79.2589C127.531 79.2589 127.395 75.6204 127.395 71.839C127.395 68.0576 129.353 67.221 130.612 67.221C131.222 67.2022 131.833 67.2478 132.434 67.357C132.434 67.357 133.114 61.3381 137.617 60.3587C142.119 59.3794 145.458 63.0179 146.996 61.7597C148.533 60.5015 143.357 60.6376 145.595 58.8217C147.832 57.0058 154.279 56.8562 154.98 63.5824C155.681 70.3087 151.056 73.3828 148.818 73.9405C146.581 74.4982 143.493 70.4379 140.555 70.5808C137.617 70.7236 138.038 74.0833 136.216 75.4843C134.393 76.8854 132.992 76.1645 132.992 78.0007C132.992 79.837 132.156 80.8028 129.911 80.9388C127.667 81.0748 127.531 79.2589 127.531 79.2589Z" fill="#263238" stroke="#263238" stroke-linecap="round" stroke-linejoin="round"/>
<path d="M148.281 68.4316C148.281 68.4316 150.464 69.4381 153.313 67.5951C156.163 65.752 154.313 61.5625 153.817 61.3925" stroke="white" stroke-linecap="round" stroke-linejoin="round"/>
<path d="M135.542 67.425C135.542 67.425 136.549 63.0655 140.065 63.2356C143.581 63.4056 143.085 66.5885 146.104 67.5951" stroke="white" stroke-linecap="round" stroke-linejoin="round"/>
<path d="M133.706 70.1591C133.706 70.1591 131.666 68.1188 129.857 68.6016C128.048 69.0845 128.85 72.2878 129.02 73.2944C129.19 74.301 127.844 77.1506 127.844 77.1506" stroke="white" stroke-linecap="round" stroke-linejoin="round"/>
<path d="M86.418 81.6461L91.478 99.7098L99.5781 99.3698L94.8513 81.1428L86.418 81.6461Z" fill="#263238" stroke="#263238" stroke-linecap="round" stroke-linejoin="round"/>
<path d="M99.7483 115.407L97.5516 116.583C97.5516 116.583 94.8311 108.143 93.675 104.94C92.5188 101.737 92.1515 100.383 92.1515 100.383H92.2059C92.7838 100.049 93.2391 99.5385 93.5048 98.9263C93.7705 98.3141 93.8325 97.6328 93.6818 96.9826L93.2941 95.2619C93.353 95.4191 93.4479 95.5603 93.5712 95.6741C93.6944 95.788 93.8427 95.8714 94.004 95.9177C94.1653 95.964 94.3352 95.9718 94.5001 95.9406C94.665 95.9094 94.8203 95.84 94.9536 95.738C95.5181 95.3708 94.9196 91.6574 94.2394 90.2971C93.5593 88.9369 91.3082 89.9367 90.6349 90.2971C90.1391 90.574 89.6818 90.9147 89.2746 91.3105L88.7714 89.2702C88.7714 89.2702 91.3014 89.1001 91.8115 89.1001C92.3215 89.1001 94.1714 87.4135 93.3281 87.2435C92.4848 87.0734 87.758 87.0734 86.5746 88.0868C85.3912 89.1002 87.418 93.1536 87.758 93.9969C88.0981 94.8403 89.7983 103.45 90.4784 105.81C91.1586 108.17 92.8452 125.534 93.879 127.077C94.9128 128.621 102.421 121.48 102.421 121.48L99.7483 115.407Z" fill="white" stroke="#263238" stroke-linecap="round" stroke-linejoin="round"/>
<path d="M89.8525 92.5279C89.8525 92.5279 92.2261 90.4875 94.3617 90.9908" stroke="#263238" stroke-linecap="round" stroke-linejoin="round"/>
<path d="M90.5667 94.5342C91.0769 94.0135 91.6851 93.5987 92.3562 93.3139C93.0274 93.0291 93.7482 92.8799 94.4773 92.8748" stroke="#263238" stroke-linecap="round" stroke-linejoin="round"/>
<path d="M117.73 93.6841C117.73 93.6841 114.602 96.6698 113.248 99.1998C111.895 101.73 99.075 115.407 99.075 115.407L102.788 128.064L111.902 120.297C111.902 120.297 116.962 110.51 118.315 104.267C119.669 98.0232 120.866 93.5685 117.73 93.6841Z" fill="#92E3A9" stroke="#263238" stroke-linecap="round" stroke-linejoin="round"/>
<path d="M145.737 97.0438C145.737 97.0438 135.794 96.2005 130.197 95.3639C124.6 94.5274 118.431 92.9835 117.73 93.6841C117.03 94.3846 112.636 116.379 108.352 125.187C102.68 136.851 98.7758 143.033 98.7758 143.033C102.709 141.522 106.984 141.129 111.127 141.897C118.125 143.155 129.02 150.596 129.02 150.596C129.02 150.596 134.257 139.326 139.854 127.989C145.452 116.651 148.397 99.703 148.397 98.7441C148.397 97.7851 146.574 96.901 145.737 97.0438Z" fill="#92E3A9" stroke="#263238" stroke-linecap="round" stroke-linejoin="round"/>
<path d="M141.48 96.6562C138.079 96.3365 133.427 95.8468 130.197 95.364C129.721 95.296 129.251 95.2143 128.775 95.1395C128.105 97.0165 127.686 98.9742 127.531 100.961C127.252 105.042 129.632 109.503 131.455 109.503C133.278 109.503 138.875 101.947 140.133 99.8459C140.756 98.8647 141.211 97.7867 141.48 96.6562Z" fill="white" stroke="#263238" stroke-linecap="round" stroke-linejoin="round"/>
<path d="M132.291 87.5223C132.291 87.5223 130.897 94.6634 129.775 97.6015C128.653 100.54 129.911 105.722 131.312 105.865C132.713 106.008 138.317 98.7237 138.317 98.7237L140.276 90.6032C140.276 90.6032 133.135 88.6445 132.291 87.5223Z" fill="white" stroke="#263238" stroke-linecap="round" stroke-linejoin="round"/>
<path d="M147.009 97.343C147.756 97.4604 148.465 97.7501 149.08 98.1893C149.695 98.6285 150.199 99.205 150.552 99.873C151.913 102.24 165.406 124.683 165.406 124.683L156.286 127.05L143.629 115.74C143.629 115.74 140.596 111.857 143.969 104.94" fill="#92E3A9"/>
<path d="M147.009 97.343C147.756 97.4604 148.465 97.7501 149.08 98.1893C149.695 98.6285 150.199 99.205 150.552 99.873C151.913 102.24 165.406 124.683 165.406 124.683L156.286 127.05L143.629 115.74C143.629 115.74 140.596 111.857 143.969 104.94" stroke="#263238" stroke-linecap="round" stroke-linejoin="round"/>
<path d="M120.675 118.61C120.675 118.61 117.472 121.48 117.274 122.153C117.077 122.827 118.961 125.554 119.471 125.697C119.981 125.84 120.151 124.337 119.974 123.657C119.798 122.976 119.471 121.963 119.471 121.963L121.321 119.773C121.321 119.773 122.028 118.95 120.675 118.61Z" fill="white" stroke="#263238" stroke-linecap="round" stroke-linejoin="round"/>
<path d="M161.856 119.283C159.814 118.532 157.644 118.187 155.47 118.27C151.926 118.44 144.499 120.31 139.773 120.467C135.046 120.623 135.216 120.807 132.686 120.127C130.156 119.447 124.926 115.407 123.743 115.407C122.559 115.407 119.016 121.31 119.526 121.983C120.036 122.657 124.246 125.867 125.429 126.064C126.613 126.261 129.143 124.704 129.143 124.704C129.143 124.704 141.799 126.561 147.71 127.241C153.62 127.921 160.876 128.757 163.74 126.901C166.603 125.044 165.739 120.97 161.856 119.283Z" fill="white" stroke="#263238" stroke-linecap="round" stroke-linejoin="round"/>
<path d="M123.715 117.427L120.505 122.493" stroke="#263238" stroke-linecap="round" stroke-linejoin="round"/>
<path d="M126.075 119.283L122.362 124.35" stroke="#263238" stroke-linecap="round" stroke-linejoin="round"/>
<path d="M127.769 121.48L124.559 125.364" stroke="#263238" stroke-linecap="round" stroke-linejoin="round"/>
<path d="M129.115 124.683L128.775 123.507L127.089 124.52" stroke="#263238" stroke-linecap="round" stroke-linejoin="round"/>
<path d="M149.097 78.7013C149.097 78.7013 150.498 77.7219 150.777 80.3811C151.056 83.0404 150.097 84.8631 149.376 85.2847C148.655 85.7064 147.839 84.9991 147.839 84.9991L149.097 78.7013Z" fill="white" stroke="#263238" stroke-linecap="round" stroke-linejoin="round"/>
<path d="M128.945 79.1229C128.945 79.1229 126.708 76.1781 125.45 78.7013C124.191 81.2245 125.164 84.4414 126.851 85.6996C128.537 86.9578 130.21 85.1419 130.21 85.1419C130.21 85.1419 133.849 92.5619 136.93 92.8407C140.011 93.1196 145.771 90.882 147.852 86.5429C149.933 82.2038 149.668 75.1987 149.947 72.5395C150.226 69.8802 147.288 66.5205 141.827 66.5205C140.287 66.4831 138.759 66.7904 137.354 67.42C135.949 68.0496 134.703 68.9855 133.706 70.1591C133.913 70.2668 134.093 70.4208 134.232 70.6092C134.37 70.7975 134.463 71.0152 134.504 71.2453C134.545 71.4754 134.532 71.7118 134.467 71.9362C134.402 72.1607 134.286 72.3671 134.128 72.5395C133.006 74.0833 131.611 75.0627 131.19 76.042C130.768 77.0214 131.19 78.0007 130.625 78.8441C130.061 79.6874 128.945 79.1229 128.945 79.1229Z" fill="white" stroke="#263238" stroke-linecap="round" stroke-linejoin="round"/>
<path d="M141.629 74.6546C141.507 75.4368 141.112 76.0149 140.752 75.974C140.391 75.9332 140.187 75.2327 140.31 74.4506C140.432 73.6685 140.827 73.0904 141.187 73.1312C141.548 73.172 141.752 73.8657 141.629 74.6546Z" fill="#263238"/>
<path d="M147.227 76.1713C147.104 76.9602 146.71 77.5315 146.349 77.4907C145.989 77.4499 145.785 76.7561 145.907 75.9672C146.03 75.1783 146.424 74.607 146.784 74.6478C147.145 74.6886 147.349 75.4095 147.227 76.1713Z" fill="#263238"/>
<path d="M138.861 71.3697C138.861 71.3697 140.609 69.3293 142.867 70.4447" stroke="#263238" stroke-linecap="round" stroke-linejoin="round"/>
<path d="M146.261 72.0906C146.261 72.0906 148.825 71.1657 149.342 74.6614" stroke="#263238" stroke-linecap="round" stroke-linejoin="round"/>
<path d="M145.132 74.7567C145.132 74.7567 144.207 76.5045 144.411 77.0146C144.615 77.5247 147.186 78.1436 146.363 78.8645C145.54 79.5854 143.486 80.4084 142.867 79.9935" stroke="#263238" stroke-linecap="round" stroke-linejoin="round"/>
<path d="M137.426 80.2995C137.426 80.2995 138.147 82.7683 141.432 83.2784" stroke="#263238" stroke-linecap="round" stroke-linejoin="round"/>
<path d="M99.9862 141.897C99.9862 141.897 96.232 145.644 90.8387 151.276C85.4454 156.907 71.6052 175.902 73.013 182.268C74.4209 188.634 109.134 198.217 109.134 198.217L112.881 195.639C112.881 195.639 92.0085 180.16 90.6007 176.637C89.1928 173.114 107.257 161.627 107.257 161.627L127.429 148.705C127.429 148.705 118.397 133.45 99.9862 141.897Z" fill="#263238" stroke="#263238" stroke-linecap="round" stroke-linejoin="round"/>
<path d="M125.314 132.511C125.314 132.511 129.768 139.993 129.299 148.929C128.83 157.866 125.314 165.816 116.635 165.585C107.957 165.354 108.665 152.214 111.48 145.644C114.296 139.075 114.758 130.403 125.314 132.511Z" fill="#263238" stroke="#263238" stroke-linecap="round" stroke-linejoin="round"/>
<path d="M112.623 136.966C112.623 136.966 107.699 159.716 105.352 164.171C103.006 168.625 98.7825 179.412 98.7825 179.412L103.945 180.82C103.945 180.82 111.215 170.734 119.893 160.178C128.571 149.623 127.163 135.552 125.286 132.505C123.409 129.458 116.166 129.696 112.623 136.966Z" fill="#263238" stroke="#263238" stroke-linecap="round" stroke-linejoin="round"/>
<path d="M126.606 141.462C126.606 141.462 122.736 157.642 117.458 164.327" stroke="white" stroke-linecap="round" stroke-linejoin="round"/>
<path d="M109.134 198.183C109.134 198.183 109.814 201.937 108.454 204.515C107.093 207.092 103.761 212.492 106.107 212.724C108.454 212.955 111.739 209.439 114.085 206.603C116.431 203.767 116.663 201.203 118.308 199.121C119.954 197.04 112.908 195.605 112.908 195.605L109.834 197.231L109.134 198.183Z" fill="#92E3A9" stroke="#263238" stroke-linecap="round" stroke-linejoin="round"/>
<path d="M118.281 199.121C118.839 198.401 118.383 197.761 117.54 197.231C115.909 200.791 113.917 204.176 111.596 207.33C109.141 210.52 106.876 211.411 105.277 211.513C105.23 212.193 105.434 212.662 106.08 212.724C108.426 212.962 111.711 209.439 114.058 206.603C116.404 203.767 116.635 201.23 118.281 199.121Z" fill="white" stroke="#263238" stroke-linecap="round" stroke-linejoin="round"/>
<path d="M98.8095 179.419C95.9124 179.039 93.121 178.081 90.6006 176.603C86.8532 174.263 86.1459 174.263 86.1459 178.48C86.1459 182.697 91.3079 184.812 94.1236 186.927C96.9392 189.042 98.5783 190.212 100.687 189.974C102.795 189.736 103.972 180.826 103.972 180.826C103.972 180.826 102.802 178.48 98.8095 179.419Z" fill="#92E3A9" stroke="#263238" stroke-linecap="round" stroke-linejoin="round"/>
<path d="M86.1459 178.48C86.1459 182.704 91.3079 184.812 94.1236 186.927C96.9392 189.042 98.5511 190.185 100.632 189.974C95.715 186.845 95.1913 181.813 90.6006 176.603C86.8532 174.263 86.1459 174.263 86.1459 178.48Z" fill="white" stroke="#263238" stroke-linecap="round" stroke-linejoin="round"/>
<path d="M97.5241 184.581C96.314 182.277 94.9222 180.073 93.3618 177.99C92.4026 177.62 91.4785 177.165 90.6006 176.63C86.8532 174.291 86.1459 174.291 86.1459 178.507C86.1459 182.724 91.3079 184.839 94.1236 186.954C96.9392 189.069 98.5783 190.239 100.687 190.001C101.203 189.947 101.659 189.369 102.047 188.532C101.042 188.261 100.112 187.765 99.3282 187.08C98.5444 186.395 97.9274 185.54 97.5241 184.581Z" stroke="#263238" stroke-linecap="round" stroke-linejoin="round"/>
<path d="M27.5475 105.178C27.5475 104.838 27.6087 104.498 27.6427 104.165" stroke="#263238" stroke-miterlimit="10"/>
<path d="M27.8738 102.145C30.877 78.1548 42.5187 56.0812 60.6204 40.0543C78.7221 24.0274 102.043 15.1454 126.22 15.0704C150.397 14.9953 173.773 23.7324 191.974 39.6466C210.175 55.5609 221.953 77.5618 225.105 101.533" stroke="#263238" stroke-miterlimit="10" stroke-dasharray="2.98 2.98"/>
<path d="M225.248 102.546C225.289 102.879 225.33 103.226 225.364 103.559" stroke="#263238" stroke-miterlimit="10"/>
<path d="M41.0001 36.2353L32.1995 63.6777L67.0551 68.9553L73.04 43.6213C73.04 43.6213 51.9022 42.2135 41.0001 36.2353Z" fill="white" stroke="#263238" stroke-linecap="round" stroke-linejoin="round"/>
<path d="M77.2568 18.6408C77.2568 18.6408 93.7903 20.4023 105.753 12.309C105.753 12.309 120.525 23.9185 126.157 24.9795C126.157 24.9795 117.363 34.501 108.215 37.2894C108.195 37.2894 85.6766 27.0878 77.2568 18.6408Z" fill="white" stroke="#263238" stroke-linecap="round" stroke-linejoin="round"/>
<path d="M77.2568 18.6409C79.6841 16.7991 82.4609 15.4709 85.4181 14.7371C85.7201 19.7787 87.7137 24.571 91.0767 28.3392C91.0767 28.3392 80.8546 22.8236 77.2568 18.6409Z" fill="#263238" stroke="#263238" stroke-linecap="round" stroke-linejoin="round"/>
<path d="M142.547 30.1959C142.547 30.1959 141.962 31.9574 145.478 34.8887C147.077 36.2489 150.681 36.7522 150.681 36.7522L160.135 24.9183C160.135 24.9183 144.621 27.0266 142.547 30.1959Z" fill="#263238" stroke="#263238" stroke-linecap="round" stroke-linejoin="round"/>
<path d="M142.547 30.1959C147.747 28.4029 153.229 27.5687 158.727 27.7339C161.348 27.8616 163.916 28.5199 166.275 29.6691C168.634 30.8183 170.735 32.4343 172.452 34.4194L182.653 21.749C182.653 21.749 173.832 13.6625 163.971 14.0093C154.109 14.3562 143.227 27.3803 142.547 30.1959Z" fill="white" stroke="#263238" stroke-linecap="round" stroke-linejoin="round"/>
<path d="M201.819 36.963C201.819 36.963 195.487 53.6189 181.653 55.9653C181.653 55.9653 195.487 72.3831 203.226 74.2602C203.226 74.2602 218.944 67.2211 223.167 59.7195C223.167 59.7195 209.327 51.7418 201.819 36.963Z" fill="white" stroke="#263238" stroke-linecap="round" stroke-linejoin="round"/>
<path d="M50.8479 121.8L56.9961 95.7449H15.7271L14.8497 121.8H50.8479Z" fill="#263238" stroke="#263238" stroke-linecap="round" stroke-linejoin="round"/>
<path d="M20.3588 86.0941L20.2296 116.019L51.1066 119.154L53.4326 87.3387L20.3588 86.0941Z" fill="white" stroke="#263238" stroke-linecap="round" stroke-linejoin="round"/>
<path d="M10.1639 91.0657L14.8499 121.8H50.8481L48.5085 93.9901H29.1934L27.4319 90.4808L10.1639 91.0657Z" fill="#92E3A9" stroke="#263238" stroke-linecap="round" stroke-linejoin="round"/>
<path d="M205.872 121.8L199.724 95.7449H240.993L241.87 121.8H205.872Z" fill="#263238" stroke="#263238" stroke-linecap="round" stroke-linejoin="round"/>
<path d="M236.362 86.0941L236.491 116.019L205.614 119.154L203.288 87.3387L236.362 86.0941Z" fill="white" stroke="#263238" stroke-linecap="round" stroke-linejoin="round"/>
<path d="M246.556 91.0657L241.871 121.8H205.872L208.212 93.9901H227.534L229.288 90.4808L246.556 91.0657Z" fill="#92E3A9" stroke="#263238" stroke-linecap="round" stroke-linejoin="round"/>
</svg>
