<svg width="195" height="80" viewBox="0 0 195 80" fill="none" xmlns="http://www.w3.org/2000/svg">
<path d="M188.562 29.4792C187.477 30.5647 186.178 31.1075 184.666 31.1075C183.154 31.1075 181.836 30.5647 180.711 29.4792C179.626 28.3549 179.083 27.0367 179.083 25.5247C179.083 24.0127 179.626 22.7139 180.711 21.6283C181.836 20.5428 183.154 20 184.666 20C186.178 20 187.477 20.5428 188.562 21.6283C189.686 22.7139 190.249 24.0127 190.249 25.5247C190.249 27.0367 189.686 28.3549 188.562 29.4792ZM179.839 62.569V33.4918H189.493V62.569H179.839Z" fill="#047844"/>
<path d="M164.619 62.5691V20.1163H174.273V62.5691H164.619Z" fill="#047844"/>
<path d="M161.828 62.569H151.011L142.753 50.1822V62.569H133.1V21.861H142.753V45.6461L150.255 33.4918H161.421L151.651 48.0304L161.828 62.569Z" fill="#047844"/>
<path d="M117.85 33.4918H127.503V62.569H117.85V59.8939C115.872 62.2201 113.12 63.3832 109.592 63.3832C105.715 63.3832 102.458 61.9293 99.8216 59.0216C97.2241 56.0751 95.9253 52.4114 95.9253 48.0304C95.9253 43.6495 97.2241 40.0051 99.8216 37.0974C102.458 34.1509 105.715 32.6777 109.592 32.6777C113.12 32.6777 115.872 33.8408 117.85 36.1669V33.4918ZM107.324 52.6246C108.448 53.7877 109.921 54.3693 111.743 54.3693C113.565 54.3693 115.039 53.7877 116.163 52.6246C117.287 51.4615 117.85 49.9301 117.85 48.0304C117.85 46.1307 117.287 44.5993 116.163 43.4362C115.039 42.2731 113.565 41.6916 111.743 41.6916C109.921 41.6916 108.448 42.2731 107.324 43.4362C106.199 44.5993 105.637 46.1307 105.637 48.0304C105.637 49.9301 106.199 51.4615 107.324 52.6246Z" fill="#047844"/>
<rect x="58.0779" y="16" width="11" height="47" fill="#047844"/>
<rect x="71.0779" y="16" width="17" height="10" fill="#047844"/>
<rect x="48.0779" y="16" width="8" height="10" fill="#047844"/>
<rect x="72.0779" y="33" width="10" height="30" fill="#FF9500"/>
<path d="M92.7057 32.1015L93.0779 32V42.5C90.2135 42.5 87.4837 43.7157 85.5675 45.8448L84.0779 47.5V37.5C86.3605 34.8913 89.3615 33.0136 92.7057 32.1015Z" fill="#047844"/>
<path d="M31.8795 19.1775C34.1347 19.1775 36.3905 19.1762 38.6456 19.1789C40.3414 19.1809 41.4879 20.2717 41.4879 21.8905C41.4893 35.0807 41.4893 48.2702 41.4879 61.4604C41.4879 63.0663 40.3571 64.1612 38.6798 64.1619C28.0675 64.1659 17.4553 64.1673 6.84296 64.1632C5.13077 64.1632 4.01212 63.082 4.01212 61.4509C4.00998 48.2832 4.0171 35.1161 4 21.9491C3.99787 20.5163 4.96262 19.4705 6.15182 19.2293C6.43469 19.1721 6.71827 19.1782 7.00186 19.1782C9.28121 19.1762 11.5606 19.1775 13.8399 19.1782C13.8456 19.3935 13.8449 19.6095 13.8577 19.8241C13.9069 20.6607 14.147 20.8897 15.0142 20.8897C20.2341 20.8924 25.4547 20.891 30.6747 20.891C30.7694 20.891 30.8649 20.8937 30.9597 20.8876C31.5347 20.8522 31.7641 20.6376 31.8104 20.0912C31.8361 19.7866 31.8567 19.4821 31.8803 19.1775H31.8795ZM22.931 60.9379C23.6834 60.1707 24.4273 59.4226 25.1576 58.663C25.3286 58.4852 25.4291 58.445 25.6243 58.6507C26.2862 59.3484 26.9831 60.0154 27.6407 60.7158C27.8324 60.9202 27.9193 60.8977 28.0932 60.7158C28.7651 60.012 29.4577 59.3252 30.1303 58.6221C30.2899 58.4552 30.3726 58.4579 30.5343 58.6276C31.2062 59.3314 31.9031 60.0133 32.5771 60.7158C32.7474 60.8929 32.8457 60.9004 33.0189 60.7185C33.6908 60.0147 34.3826 59.3279 35.0581 58.6269C35.207 58.4722 35.2961 58.4361 35.4642 58.6173C35.9523 59.1433 36.4603 59.6529 36.9684 60.1619C37.1992 60.3935 37.4066 60.6511 37.7208 60.8711C37.7208 60.7096 37.7208 60.5979 37.7208 60.4862C37.7208 52.8466 37.7208 45.2071 37.7208 37.5675C37.7208 34.0029 37.7008 30.4389 37.7308 26.8743C37.7436 25.3536 36.4846 24.284 35.1322 24.2874C27.0002 24.3044 18.8689 24.2955 10.7369 24.2969C10.536 24.2969 10.3357 24.2949 10.1362 24.3432C8.87009 24.6471 8.1369 25.5771 8.1369 26.8982C8.13619 38.0908 8.13619 49.2834 8.13619 60.476C8.13619 60.5945 8.13619 60.7131 8.13619 60.8316C8.1711 60.8486 8.2053 60.8657 8.24022 60.8827C8.31646 60.7846 8.38415 60.679 8.47036 60.5904C9.10949 59.9343 9.75575 59.285 10.3906 58.6255C10.536 58.4743 10.6265 58.46 10.7811 58.6201C11.4565 59.3211 12.1512 60.0052 12.8232 60.709C12.992 60.8861 13.0789 60.9386 13.2756 60.7294C13.9347 60.0297 14.6251 59.3572 15.2885 58.6609C15.4666 58.4743 15.5721 58.4572 15.758 58.6528C16.4292 59.3579 17.1218 60.0433 17.7951 60.7458C17.9519 60.9093 18.0395 60.912 18.1991 60.7444C18.8625 60.0481 19.5472 59.3709 20.212 58.6752C20.3944 58.4845 20.5027 58.4545 20.7044 58.6671C21.4297 59.4308 22.1778 60.1748 22.9303 60.9399L22.931 60.9379Z" fill="#047844"/>
<path d="M31.8796 19.1775C31.8568 19.4821 31.8354 19.7873 31.8097 20.0912C31.7634 20.6376 31.534 20.8522 30.959 20.8876C30.8642 20.8938 30.7694 20.891 30.674 20.891C25.454 20.891 20.2334 20.8924 15.0135 20.8897C14.1456 20.8897 13.9062 20.6608 13.857 19.8241C13.8442 19.6095 13.8449 19.3935 13.8392 19.1782C13.887 18.7054 13.8179 18.2291 13.9169 17.7556C14.1364 16.7057 15.089 15.9304 16.2062 15.9229C16.752 15.9188 17.2978 15.9093 17.8429 15.9263C18.1322 15.9352 18.2505 15.8861 18.306 15.5625C18.6281 13.6882 20.2534 12.2336 22.2413 12.034C24.2855 11.8282 25.873 12.5559 26.9468 14.2496C27.2268 14.6911 27.3664 15.1864 27.4377 15.6926C27.4662 15.8943 27.556 15.9263 27.7355 15.9243C28.2813 15.9175 28.8264 15.9222 29.3722 15.9215C30.8165 15.9215 31.8368 16.8801 31.8617 18.2605C31.8674 18.5664 31.8731 18.8723 31.8781 19.1782L31.8796 19.1775ZM22.8355 15.9209C23.5944 15.9209 24.3525 15.9222 25.1113 15.9209C25.5096 15.9202 25.516 15.9093 25.3913 15.5346C25.1605 14.8417 24.666 14.3777 23.9862 14.0881C22.5377 13.4715 20.8483 14.1372 20.326 15.5216C20.1885 15.8875 20.2134 15.9209 20.6303 15.9215C21.3649 15.9222 22.1002 15.9215 22.8348 15.9215L22.8355 15.9209Z" fill="#FF9500"/>
<path d="M35.4069 49.3489C35.4069 48.6269 35.2233 47.9158 34.8718 47.2768C34.5204 46.6378 34.0117 46.0901 33.3896 45.6809C32.7675 45.2718 32.0507 45.0134 31.301 44.9282C30.5512 44.8429 29.791 44.9333 29.0859 45.1915C28.3808 45.4498 27.752 45.8681 27.2536 46.4104C26.7552 46.9528 26.4023 47.6029 26.2252 48.3048C26.0481 49.0066 26.0522 49.7391 26.2371 50.4391C26.422 51.1391 26.7821 51.7855 27.2865 52.3228L28.7474 51.0688C28.4557 50.7581 28.2474 50.3842 28.1405 49.9794C28.0335 49.5746 28.0312 49.1509 28.1336 48.745C28.236 48.3391 28.4401 47.9631 28.7284 47.6495C29.0166 47.3358 29.3803 47.0939 29.7881 46.9445C30.1958 46.7952 30.6355 46.7429 31.0691 46.7922C31.5027 46.8415 31.9173 46.9909 32.2771 47.2276C32.6369 47.4642 32.9311 47.7809 33.1343 48.1505C33.3376 48.5201 33.4438 48.9313 33.4438 49.3489H35.4069Z" fill="#FF9500"/>
<path d="M30.7511 53.8008C31.6203 53.8008 32.4721 53.5681 33.2101 53.1291C33.9482 52.6902 34.543 52.0625 34.9272 51.317L33.1664 50.4871C32.9441 50.9183 32.6001 51.2813 32.1733 51.5352C31.7464 51.789 31.2538 51.9236 30.7511 51.9236L30.7511 53.8008Z" fill="#047844"/>
<path d="M22.1151 29.3594C25.5828 29.3594 29.0512 29.3621 32.5189 29.3533C32.7921 29.3526 32.8936 29.4136 32.8807 29.7046C32.857 30.2342 32.8604 30.7665 32.8807 31.2962C32.8902 31.5566 32.8009 31.6162 32.5541 31.6156C30.1109 31.6074 27.667 31.6115 25.2237 31.6115C20.7085 31.6115 16.1933 31.6074 11.6781 31.6169C11.3616 31.6176 11.2419 31.5505 11.2622 31.2127C11.2919 30.7062 11.2865 30.1962 11.2642 29.689C11.2521 29.4102 11.3535 29.3546 11.6098 29.3553C15.1113 29.3628 18.6135 29.3607 22.1151 29.3607V29.3594Z" fill="#047844"/>
<path d="M19.3306 37.5791C16.7684 37.5791 14.2062 37.573 11.6446 37.5866C11.3226 37.588 11.2414 37.4987 11.2563 37.2044C11.2813 36.6954 11.2798 36.1831 11.2563 35.6735C11.2428 35.3907 11.3311 35.3117 11.6297 35.3131C14.4527 35.324 17.2757 35.3192 20.0987 35.3192C22.4358 35.3192 24.7721 35.3253 27.1085 35.3131C27.412 35.3117 27.4897 35.3982 27.4783 35.6762C27.4562 36.1974 27.4583 36.72 27.479 37.2412C27.4897 37.5076 27.4092 37.5873 27.1235 37.5866C24.5256 37.5764 21.9285 37.5805 19.3306 37.5805V37.5791Z" fill="#047844"/>
<path d="M17.0904 41.175C18.8945 41.175 20.6993 41.1805 22.5034 41.1696C22.7863 41.1675 22.9039 41.2227 22.8889 41.5198C22.8633 42.0519 22.8718 42.5867 22.8853 43.1195C22.891 43.3477 22.8283 43.4363 22.569 43.4363C18.9009 43.4295 15.2336 43.4302 11.5655 43.4363C11.3382 43.4363 11.2513 43.3804 11.2577 43.1502C11.2734 42.6174 11.2791 42.0825 11.2549 41.5504C11.242 41.2588 11.319 41.1648 11.6425 41.1675C13.4587 41.1839 15.2749 41.175 17.0911 41.175H17.0904Z" fill="#047844"/>
<path fill-rule="evenodd" clip-rule="evenodd" d="M31.1457 27.9951L35.7225 30.5606L31.1457 33.126L31.1457 31.0049L31.1457 30.1162L31.1457 27.9951Z" fill="#047844"/>
</svg>
