<svg width="249" height="80" viewBox="0 0 249 80" fill="none" xmlns="http://www.w3.org/2000/svg">
<path d="M239.066 27.6618C237.98 28.7473 236.681 29.2901 235.169 29.2901C233.657 29.2901 232.339 28.7473 231.215 27.6618C230.129 26.5375 229.587 25.2193 229.587 23.7073C229.587 22.1953 230.129 20.8965 231.215 19.8109C232.339 18.7254 233.657 18.1826 235.169 18.1826C236.681 18.1826 237.98 18.7254 239.066 19.8109C240.19 20.8965 240.752 22.1953 240.752 23.7073C240.752 25.2193 240.19 26.5375 239.066 27.6618ZM230.343 60.7516V31.6744H239.996V60.7516H230.343Z" fill="#E6F2EC"/>
<path d="M215.122 60.7517V18.299H224.776V60.7517H215.122Z" fill="#E6F2EC"/>
<path d="M212.332 60.7517H201.515L193.257 48.3648V60.7517H183.603V20.0436H193.257V43.8287L200.759 31.6745H211.924L202.155 46.2131L212.332 60.7517Z" fill="#E6F2EC"/>
<path d="M168.353 31.6745H178.007V60.7517H168.353V58.0766C166.376 60.4027 163.623 61.5658 160.095 61.5658C156.218 61.5658 152.962 60.112 150.325 57.2042C147.728 54.2577 146.429 50.594 146.429 46.2131C146.429 41.8321 147.728 38.1877 150.325 35.28C152.962 32.3335 156.218 30.8603 160.095 30.8603C163.623 30.8603 166.376 32.0234 168.353 34.3496V31.6745ZM157.827 50.8073C158.952 51.9703 160.425 52.5519 162.247 52.5519C164.069 52.5519 165.542 51.9703 166.667 50.8073C167.791 49.6442 168.353 48.1128 168.353 46.2131C168.353 44.3133 167.791 42.7819 166.667 41.6189C165.542 40.4558 164.069 39.8742 162.247 39.8742C160.425 39.8742 158.952 40.4558 157.827 41.6189C156.703 42.7819 156.141 44.3133 156.141 46.2131C156.141 48.1128 156.703 49.6442 157.827 50.8073Z" fill="#E6F2EC"/>
<path d="M136.181 37.0828C136.724 35.1831 137.81 33.7098 139.438 32.6631C141.066 31.6163 142.889 31.0929 144.905 31.0929V41.7933C142.695 41.4444 140.679 41.8515 138.857 43.0146C137.073 44.1776 136.181 46.0773 136.181 48.7137V60.7516H126.528V31.6744H136.181V37.0828Z" fill="#E6F2EC"/>
<path d="M126.113 20.0436V30.1043H116.052V60.7517H105.642V30.1043H95.5815V20.0436H126.113Z" fill="#E6F2EC"/>
<path d="M57.6959 13.7432C60.5833 13.7432 63.4715 13.7414 66.3589 13.7451C68.5302 13.7478 69.9981 15.2282 69.9981 17.4252C69.9999 35.3268 69.9999 53.2275 69.9981 71.1291C69.9981 73.3085 68.5503 74.7944 66.4027 74.7954C52.8151 74.8009 39.2275 74.8028 25.6399 74.7972C23.4477 74.7972 22.0154 73.3298 22.0154 71.1161C22.0127 53.245 22.0218 35.3749 21.9999 17.5048C21.9971 15.5602 23.2324 14.1408 24.755 13.8135C25.1172 13.7358 25.4803 13.7441 25.8433 13.7441C28.7618 13.7414 31.6802 13.7432 34.5986 13.7441C34.6059 14.0363 34.605 14.3295 34.6214 14.6207C34.6843 15.7562 34.9918 16.0669 36.102 16.0669C42.7854 16.0706 49.4698 16.0688 56.1532 16.0688C56.2745 16.0688 56.3968 16.0725 56.5181 16.0641C57.2543 16.0161 57.5481 15.7248 57.6074 14.9832C57.6402 14.5699 57.6667 14.1565 57.6968 13.7432H57.6959ZM46.2384 70.4198C47.2018 69.3787 48.1542 68.3634 49.0893 67.3324C49.3083 67.091 49.4369 67.0365 49.6869 67.3157C50.5344 68.2626 51.4266 69.1678 52.2687 70.1184C52.5141 70.3958 52.6254 70.3653 52.848 70.1184C53.7083 69.1632 54.595 68.2311 55.4562 67.2769C55.6605 67.0503 55.7664 67.054 55.9735 67.2843C56.8337 68.2395 57.726 69.1651 58.589 70.1184C58.807 70.3588 58.9329 70.369 59.1546 70.1221C60.0149 69.1669 60.9007 68.2348 61.7656 67.2834C61.9562 67.0735 62.0703 67.0245 62.2856 67.2704C62.9105 67.9843 63.561 68.6759 64.2114 69.3666C64.507 69.681 64.7725 70.0305 65.1748 70.3292C65.1748 70.1101 65.1748 69.9584 65.1748 69.8068C65.1748 59.4385 65.1748 49.0702 65.1748 38.7019C65.1748 33.864 65.1492 29.0271 65.1876 24.1892C65.204 22.1253 63.592 20.6736 61.8605 20.6782C51.4485 20.7013 41.0375 20.6893 30.6256 20.6912C30.3683 20.6912 30.1119 20.6884 29.8565 20.7541C28.2354 21.1665 27.2966 22.4286 27.2966 24.2216C27.2957 39.412 27.2957 54.6025 27.2957 69.7929C27.2957 69.9538 27.2957 70.1147 27.2957 70.2756C27.3404 70.2987 27.3842 70.3218 27.4289 70.3449C27.5265 70.2118 27.6132 70.0685 27.7236 69.9483C28.5419 69.0578 29.3693 68.1766 30.1822 67.2815C30.3683 67.0762 30.4842 67.0568 30.6821 67.2741C31.547 68.2256 32.4365 69.154 33.2967 70.1091C33.5129 70.3496 33.6242 70.4208 33.876 70.1369C34.7199 69.1873 35.6039 68.2746 36.4532 67.3296C36.6813 67.0762 36.8163 67.0531 37.0544 67.3185C37.9138 68.2755 38.8006 69.2057 39.6627 70.1591C39.8634 70.381 39.9756 70.3847 40.1799 70.1572C41.0293 69.2122 41.906 68.2931 42.7572 67.349C42.9907 67.0901 43.1294 67.0494 43.3875 67.3379C44.3163 68.3745 45.2742 69.3842 46.2375 70.4226L46.2384 70.4198Z" fill="white"/>
<path d="M57.6959 13.7432C57.6667 14.1565 57.6393 14.5708 57.6065 14.9832C57.5472 15.7248 57.2534 16.016 56.5172 16.0641C56.3958 16.0724 56.2745 16.0687 56.1523 16.0687C49.4689 16.0687 42.7845 16.0706 36.1011 16.0669C34.9899 16.0669 34.6834 15.7562 34.6205 14.6207C34.604 14.3294 34.605 14.0363 34.5977 13.7441C34.6588 13.1024 34.5703 12.4561 34.6971 11.8134C34.9781 10.3885 36.1978 9.33624 37.6283 9.32607C38.3271 9.32052 39.0259 9.30758 39.7238 9.33069C40.0942 9.34271 40.2456 9.27614 40.3168 8.83692C40.7291 6.29316 42.8101 4.31899 45.3554 4.04806C47.9727 3.76881 50.0053 4.75636 51.3801 7.05508C51.7386 7.65427 51.9174 8.3265 52.0087 9.01353C52.0452 9.28723 52.1601 9.33069 52.39 9.32792C53.0888 9.31867 53.7867 9.32514 54.4855 9.32422C56.3347 9.32422 57.6411 10.6252 57.6731 12.4986C57.6804 12.9138 57.6877 13.329 57.694 13.7441L57.6959 13.7432ZM46.1162 9.32329C47.0878 9.32329 48.0585 9.32514 49.03 9.32329C49.54 9.32237 49.5482 9.30758 49.3886 8.79901C49.093 7.85862 48.4599 7.22892 47.5895 6.83594C45.7349 5.99911 43.5718 6.90251 42.9031 8.78144C42.727 9.27799 42.759 9.32329 43.2927 9.32422C44.2332 9.32514 45.1747 9.32422 46.1153 9.32422L46.1162 9.32329Z" fill="#FF9500"/>
<path d="M62.2121 54.6914C62.2121 53.7115 61.977 52.7464 61.527 51.8791C61.0771 51.0119 60.4258 50.2686 59.6293 49.7133C58.8328 49.158 57.915 48.8074 56.955 48.6916C55.995 48.5759 55.0217 48.6986 54.1189 49.049C53.2161 49.3995 52.411 49.9672 51.7729 50.7033C51.1348 51.4394 50.6829 52.3218 50.4562 53.2743C50.2295 54.2268 50.2347 55.2209 50.4714 56.1709C50.7081 57.1209 51.1693 57.9984 51.8151 58.7275L53.6855 57.0256C53.312 56.6039 53.0453 56.0965 52.9084 55.5471C52.7715 54.9976 52.7685 54.4227 52.8996 53.8718C53.0308 53.3209 53.2921 52.8106 53.6611 52.3849C54.0302 51.9592 54.4958 51.6309 55.0179 51.4282C55.5401 51.2255 56.103 51.1545 56.6582 51.2215C57.2134 51.2884 57.7442 51.4912 58.2048 51.8123C58.6655 52.1335 59.0421 52.5634 59.3024 53.0649C59.5626 53.5665 59.6986 54.1247 59.6986 54.6914H62.2121Z" fill="#FF9500"/>
<path d="M56.251 60.7334C57.3639 60.7334 58.4545 60.4176 59.3995 59.8219C60.3444 59.2261 61.106 58.3742 61.598 57.3624L59.3434 56.2361C59.0589 56.8213 58.6184 57.314 58.0719 57.6586C57.5254 58.0031 56.8946 58.1857 56.251 58.1857L56.251 60.7334Z" fill="white"/>
<path d="M45.1939 27.5618C49.6338 27.5618 54.0746 27.5655 58.5146 27.5535C58.8644 27.5526 58.9943 27.6354 58.9778 28.0303C58.9475 28.7491 58.9518 29.4716 58.9778 30.1904C58.9899 30.5438 58.8756 30.6248 58.5596 30.6239C55.4314 30.6128 52.3023 30.6184 49.1741 30.6184C43.3929 30.6184 37.6118 30.6128 31.8307 30.6257C31.4255 30.6266 31.2722 30.5355 31.2982 30.0772C31.3363 29.3897 31.3294 28.6976 31.3008 28.0091C31.2852 27.6308 31.4151 27.5554 31.7432 27.5563C36.2265 27.5664 40.7106 27.5637 45.1939 27.5637V27.5618Z" fill="white"/>
<path d="M41.6286 38.7176C38.3481 38.7176 35.0675 38.7092 31.7878 38.7277C31.3755 38.7296 31.2714 38.6084 31.2906 38.209C31.3225 37.5183 31.3207 36.8229 31.2906 36.1313C31.2733 35.7475 31.3864 35.6403 31.7686 35.6421C35.3831 35.6569 38.9976 35.6504 42.6121 35.6504C45.6044 35.6504 48.5958 35.6588 51.5872 35.6421C51.9758 35.6403 52.0753 35.7577 52.0607 36.135C52.0324 36.8423 52.0351 37.5516 52.0616 38.2589C52.0752 38.6205 51.9722 38.7287 51.6063 38.7277C48.2801 38.7139 44.9548 38.7194 41.6286 38.7194V38.7176Z" fill="white"/>
<path d="M38.7604 43.598C41.0703 43.598 43.3812 43.6054 45.6911 43.5906C46.0533 43.5878 46.2038 43.6627 46.1846 44.0658C46.1518 44.788 46.1627 45.5139 46.1801 46.237C46.1874 46.5467 46.1071 46.6669 45.775 46.6669C41.0786 46.6577 36.383 46.6586 31.6866 46.6669C31.3955 46.6669 31.2842 46.5911 31.2925 46.2786C31.3125 45.5555 31.3198 44.8296 31.2888 44.1074C31.2724 43.7117 31.3709 43.5841 31.7851 43.5878C34.1105 43.61 36.4359 43.598 38.7613 43.598H38.7604Z" fill="white"/>
<path fill-rule="evenodd" clip-rule="evenodd" d="M56.7563 25.7102L62.6163 29.1921L56.7563 32.6739L56.7563 29.7951L56.7563 28.589L56.7563 25.7102Z" fill="white"/>
</svg>
