<svg width="249" height="80" viewBox="0 0 249 80" fill="none" xmlns="http://www.w3.org/2000/svg">
<path d="M239.066 27.6618C237.98 28.7473 236.681 29.2901 235.169 29.2901C233.657 29.2901 232.339 28.7473 231.215 27.6618C230.129 26.5375 229.587 25.2193 229.587 23.7073C229.587 22.1953 230.129 20.8965 231.215 19.8109C232.339 18.7254 233.657 18.1826 235.169 18.1826C236.681 18.1826 237.98 18.7254 239.066 19.8109C240.19 20.8965 240.752 22.1953 240.752 23.7073C240.752 25.2193 240.19 26.5375 239.066 27.6618ZM230.343 60.7516V31.6744H239.996V60.7516H230.343Z" fill="#E6F2EC"/>
<path d="M215.122 60.7517V18.299H224.776V60.7517H215.122Z" fill="#E6F2EC"/>
<path d="M212.332 60.7517H201.515L193.257 48.3648V60.7517H183.603V20.0436H193.257V43.8287L200.759 31.6745H211.924L202.155 46.2131L212.332 60.7517Z" fill="#E6F2EC"/>
<path d="M168.353 31.6745H178.007V60.7517H168.353V58.0766C166.376 60.4027 163.623 61.5658 160.095 61.5658C156.218 61.5658 152.962 60.112 150.325 57.2042C147.728 54.2577 146.429 50.594 146.429 46.2131C146.429 41.8321 147.728 38.1877 150.325 35.28C152.962 32.3335 156.218 30.8603 160.095 30.8603C163.623 30.8603 166.376 32.0234 168.353 34.3496V31.6745ZM157.827 50.8073C158.952 51.9703 160.425 52.5519 162.247 52.5519C164.069 52.5519 165.542 51.9703 166.667 50.8073C167.791 49.6442 168.353 48.1128 168.353 46.2131C168.353 44.3133 167.791 42.7819 166.667 41.6189C165.542 40.4558 164.069 39.8742 162.247 39.8742C160.425 39.8742 158.952 40.4558 157.827 41.6189C156.703 42.7819 156.141 44.3133 156.141 46.2131C156.141 48.1128 156.703 49.6442 157.827 50.8073Z" fill="#E6F2EC"/>
<path d="M136.181 37.0828C136.724 35.1831 137.81 33.7098 139.438 32.6631C141.066 31.6163 142.889 31.0929 144.905 31.0929V41.7933C142.695 41.4444 140.679 41.8515 138.857 43.0146C137.073 44.1776 136.181 46.0773 136.181 48.7137V60.7516H126.528V31.6744H136.181V37.0828Z" fill="#E6F2EC"/>
<path d="M126.113 20.0436V30.1043H116.052V60.7517H105.642V30.1043H95.5815V20.0436H126.113Z" fill="#E6F2EC"/>
<rect x="33" y="12" width="14" height="56" fill="white"/>
<rect x="52" y="12" width="23" height="11" fill="white"/>
<rect x="52" y="28" width="23" height="40" fill="#FF9500"/>
<path fill-rule="evenodd" clip-rule="evenodd" d="M22 56C18.6863 56 16 58.6863 16 62C16 65.3137 18.6863 68 22 68C25.3137 68 28 65.3137 28 62C28 58.6863 25.3137 56 22 56ZM22 59C20.3431 59 19 60.3431 19 62C19 63.6569 20.3431 65 22 65C23.6569 65 25 63.6569 25 62C25 60.3431 23.6569 59 22 59Z" fill="#FF9500"/>
<rect x="16" y="12" width="12" height="11" fill="white"/>
</svg>
