<svg width="24" height="24" viewBox="0 0 24 24" fill="none" xmlns="http://www.w3.org/2000/svg">
<path d="M14.5 16.19H9.5C9.09 16.19 8.75 15.85 8.75 15.44C8.75 15.03 9.09 14.69 9.5 14.69H14.5C14.91 14.69 15.25 15.03 15.25 15.44C15.25 15.85 14.91 16.19 14.5 16.19Z" fill="#292D32"/>
<path d="M12 18.75C11.59 18.75 11.25 18.41 11.25 18V13C11.25 12.59 11.59 12.25 12 12.25C12.41 12.25 12.75 12.59 12.75 13V18C12.75 18.41 12.41 18.75 12 18.75Z" fill="#292D32"/>
<path d="M5.2 10.46C5.01 10.46 4.82 10.38 4.67 10.24C4.46 10.03 4.39 9.7 4.51 9.42L6.37 4.98C6.41 4.89 6.43 4.83 6.46 4.78C7.94 1.37 9.83 0.539999 13.17 1.82C13.36 1.89 13.51 2.04 13.59 2.23C13.67 2.42 13.67 2.63 13.59 2.82L10.66 9.62C10.54 9.89 10.27 10.07 9.97 10.07H7.12C6.55 10.07 6.01 10.18 5.49 10.4C5.4 10.44 5.3 10.46 5.2 10.46ZM10.61 2.75C9.37 2.75 8.61 3.56 7.82 5.4C7.81 5.43 7.79 5.46 7.78 5.49L6.47 8.6C6.69 8.58 6.9 8.57 7.12 8.57H9.47L11.88 2.97C11.41 2.82 10.99 2.75 10.61 2.75Z" fill="#292D32"/>
<path d="M18.29 10.27C18.22 10.27 18.14 10.26 18.07 10.24C17.7 10.13 17.29 10.07 16.87 10.07H9.97C9.72 10.07 9.48 9.94002 9.34 9.73002C9.21 9.52002 9.18 9.25002 9.28 9.02002L12.18 2.29002C12.33 1.93002 12.77 1.69002 13.14 1.81002C13.26 1.85002 13.37 1.90002 13.49 1.95002L15.85 2.94002C17.23 3.51002 18.15 4.11002 18.75 4.83002C18.87 4.97002 18.97 5.12002 19.06 5.27002C19.17 5.44002 19.27 5.65002 19.34 5.86002C19.37 5.93002 19.42 6.06002 19.45 6.20002C19.73 7.14002 19.59 8.31002 18.99 9.81002C18.87 10.09 18.59 10.27 18.29 10.27ZM11.11 8.57002H16.88C17.2 8.57002 17.51 8.60002 17.82 8.65002C18.1 7.78002 18.16 7.11002 18 6.57002C17.98 6.48002 17.96 6.44002 17.95 6.40002C17.89 6.24002 17.85 6.15002 17.8 6.07002C17.73 5.96002 17.68 5.87002 17.6 5.78002C17.17 5.26002 16.41 4.78002 15.28 4.32002L13.3 3.49002L11.11 8.57002Z" fill="#292D32"/>
<path d="M15.9 22.75H8.1C7.82 22.75 7.56 22.73 7.3 22.7C3.79 22.46 1.79 20.46 1.55 16.91C1.52 16.69 1.5 16.42 1.5 16.15V14.2C1.5 11.95 2.84 9.92001 4.91 9.02001C5.61 8.72001 6.36 8.57001 7.13 8.57001H16.89C17.46 8.57001 18.01 8.65001 18.52 8.81001C20.87 9.52001 22.52 11.74 22.52 14.2V16.15C22.52 16.37 22.51 16.58 22.5 16.78C22.28 20.69 20 22.75 15.9 22.75ZM7.12 10.07C6.55 10.07 6.01 10.18 5.49 10.4C3.97 11.06 2.99 12.55 2.99 14.2V16.15C2.99 16.36 3.01 16.57 3.03 16.77C3.22 19.62 4.62 21.02 7.43 21.21C7.68 21.24 7.88 21.26 8.09 21.26H15.89C19.19 21.26 20.81 19.81 20.97 16.71C20.98 16.53 20.99 16.35 20.99 16.15V14.2C20.99 12.39 19.78 10.77 18.06 10.24C17.69 10.13 17.28 10.07 16.86 10.07H7.12Z" fill="#292D32"/>
<path d="M2.24 14.95C1.83 14.95 1.49 14.61 1.49 14.2V11.27C1.49 8.11998 3.72 5.39998 6.8 4.79998C7.07 4.74998 7.35 4.84998 7.53 5.05998C7.7 5.26998 7.75 5.56998 7.64 5.81998L5.89 9.99998C5.81 10.18 5.67 10.32 5.5 10.4C3.98 11.06 3 12.55 3 14.2C2.99 14.61 2.66 14.95 2.24 14.95ZM5.6 6.81998C4.32 7.53998 3.39 8.79998 3.1 10.27C3.54 9.81998 4.05 9.43998 4.63 9.15998L5.6 6.81998Z" fill="#292D32"/>
<path d="M21.76 14.95C21.35 14.95 21.01 14.61 21.01 14.2C21.01 12.39 19.8 10.77 18.08 10.24C17.88 10.18 17.71 10.04 17.62 9.85002C17.53 9.66002 17.52 9.44002 17.6 9.25002C18.07 8.08002 18.19 7.23002 18 6.57002C17.98 6.48002 17.96 6.44002 17.95 6.40002C17.82 6.11002 17.89 5.77002 18.12 5.55002C18.35 5.33002 18.7 5.28002 18.98 5.43002C21.16 6.57002 22.51 8.81002 22.51 11.27V14.2C22.51 14.61 22.17 14.95 21.76 14.95ZM19.25 9.09002C19.88 9.38002 20.44 9.79002 20.91 10.28C20.72 9.30002 20.25 8.41002 19.56 7.71002C19.51 8.13002 19.41 8.59002 19.25 9.09002Z" fill="#292D32"/>
</svg>
